<svg width="100" height="24" viewBox="0 0 100 24" fill="none" xmlns="http://www.w3.org/2000/svg">
  <path d="M15.6 4.8C17.8 4.8 19.6 5.4 21 6.6C22.4 7.8 23.1 9.4 23.1 11.4C23.1 13.4 22.4 15 21 16.2C19.6 17.4 17.8 18 15.6 18H8.1V4.8H15.6ZM15.6 15.3C16.8 15.3 17.7 15 18.3 14.4C18.9 13.8 19.2 12.9 19.2 11.7C19.2 10.5 18.9 9.6 18.3 9C17.7 8.4 16.8 8.1 15.6 8.1H12V15.3H15.6Z" fill="white"/>
  <path d="M34.1 18.3C32.5 18.3 31.1 17.9 29.9 17.1C28.7 16.3 27.8 15.2 27.2 13.8C26.6 12.4 26.3 10.9 26.3 9.3C26.3 7.7 26.6 6.2 27.2 4.8C27.8 3.4 28.7 2.3 29.9 1.5C31.1 0.7 32.5 0.3 34.1 0.3C35.7 0.3 37.1 0.7 38.3 1.5C39.5 2.3 40.4 3.4 41 4.8C41.6 6.2 41.9 7.7 41.9 9.3C41.9 10.9 41.6 12.4 41 13.8C40.4 15.2 39.5 16.3 38.3 17.1C37.1 17.9 35.7 18.3 34.1 18.3ZM34.1 15C35.3 15 36.2 14.5 36.8 13.5C37.4 12.5 37.7 11.1 37.7 9.3C37.7 7.5 37.4 6.1 36.8 5.1C36.2 4.1 35.3 3.6 34.1 3.6C32.9 3.6 32 4.1 31.4 5.1C30.8 6.1 30.5 7.5 30.5 9.3C30.5 11.1 30.8 12.5 31.4 13.5C32 14.5 32.9 15 34.1 15Z" fill="white"/>
  <path d="M52.9 4.8V8.1H47.1V10.2H51.9V13.2H47.1V18H43.2V4.8H52.9Z" fill="white"/>
  <path d="M54.3 4.8H58.2V18H54.3V4.8Z" fill="white"/>
  <path d="M69.5 4.8V8.1H65.9V18H62V8.1H58.4V4.8H69.5Z" fill="white"/>
  <path d="M70.3 4.8H74.2V14.7H80.1V18H70.3V4.8Z" fill="white"/>
  <path d="M90.1 18L88.5 14.4H88.2H85.5V18H81.6V4.8H88.2C89.6 4.8 90.8 5 91.8 5.4C92.8 5.8 93.5 6.4 94 7.2C94.5 8 94.7 8.9 94.7 10C94.7 11.1 94.4 12 93.9 12.8C93.4 13.6 92.6 14.2 91.6 14.6L93.6 18H90.1ZM90.8 10C90.8 9.2 90.5 8.6 90 8.2C89.5 7.8 88.7 7.6 87.7 7.6H85.5V12.4H87.7C88.7 12.4 89.5 12.2 90 11.8C90.5 11.4 90.8 10.8 90.8 10Z" fill="white"/>
</svg>